# xmcd CD database file
#
# Track frame offsets:
#	150
#	16649
#	29540
#	43880
#	65204
#	79541
#	96428
#	109434
#	126385
#	145344
#
# Disc length: 2025 seconds
#
# Revision: 0
# Processed by: cddbd v1.5.2PL0 Copyright (c) Steve Scherf et al.
# Submitted via: CDex 1.50beta10
#
DISCID=9107e70a
DTITLE=Tribute Sounds - Smooth Sax Tribute To Aretha Franklin
DYEAR=2005
DGENRE=Jazz
TTITLE0=I Knew You Were Waiting For Me
TTITLE1=Chain Of Fools
TTITLE2=You Make Me Feel Like A Natural Women
TTITLE3=Jimmy Lee
TTITLE4=Baby I Love You
TTITLE5=Until You Come Back To Me
TTITLE6=Respect
TTITLE7=Freeway Of Love
TTITLE8=Who's Zoomin Who
TTITLE9=Jimmy Lee - Reprise
EXTD=YEAR: 2005
EXTT0=
EXTT1=
EXTT2=
EXTT3=
EXTT4=
EXTT5=
EXTT6=
EXTT7=
EXTT8=
EXTT9=
PLAYORDER=
